<svg width="1616" height="909" viewBox="0 0 1616 909" fill="none" xmlns="http://www.w3.org/2000/svg">
<rect width="1616" height="909" fill="white"/>
<path d="M767.364 454.091C767.364 461.455 766.034 467.818 763.375 473.182C760.716 478.545 757.068 482.682 752.432 485.591C747.795 488.5 742.5 489.955 736.545 489.955C730.591 489.955 725.295 488.5 720.659 485.591C716.023 482.682 712.375 478.545 709.716 473.182C707.057 467.818 705.727 461.455 705.727 454.091C705.727 446.727 707.057 440.364 709.716 435C712.375 429.636 716.023 425.5 720.659 422.591C725.295 419.682 730.591 418.227 736.545 418.227C742.5 418.227 747.795 419.682 752.432 422.591C757.068 425.5 760.716 429.636 763.375 435C766.034 440.364 767.364 446.727 767.364 454.091ZM759.182 454.091C759.182 448.045 758.17 442.943 756.148 438.784C754.148 434.625 751.432 431.477 748 429.341C744.591 427.205 740.773 426.136 736.545 426.136C732.318 426.136 728.489 427.205 725.057 429.341C721.648 431.477 718.932 434.625 716.909 438.784C714.909 442.943 713.909 448.045 713.909 454.091C713.909 460.136 714.909 465.239 716.909 469.398C718.932 473.557 721.648 476.705 725.057 478.841C728.489 480.977 732.318 482.045 736.545 482.045C740.773 482.045 744.591 480.977 748 478.841C751.432 476.705 754.148 473.557 756.148 469.398C758.17 465.239 759.182 460.136 759.182 454.091ZM788.534 419.182V489H780.489V419.182H788.534ZM811.315 419.182V489H803.27V419.182H811.315ZM841.46 490.227C838.142 490.227 835.131 489.602 832.426 488.352C829.722 487.08 827.574 485.25 825.983 482.864C824.392 480.455 823.597 477.545 823.597 474.136C823.597 471.136 824.188 468.705 825.369 466.841C826.551 464.955 828.131 463.477 830.108 462.409C832.085 461.341 834.267 460.545 836.653 460.023C839.063 459.477 841.483 459.045 843.915 458.727C847.097 458.318 849.676 458.011 851.653 457.807C853.653 457.58 855.108 457.205 856.017 456.682C856.949 456.159 857.415 455.25 857.415 453.955V453.682C857.415 450.318 856.494 447.705 854.653 445.841C852.835 443.977 850.074 443.045 846.369 443.045C842.528 443.045 839.517 443.886 837.335 445.568C835.153 447.25 833.619 449.045 832.733 450.955L825.097 448.227C826.46 445.045 828.278 442.568 830.551 440.795C832.847 439 835.347 437.75 838.051 437.045C840.778 436.318 843.46 435.955 846.097 435.955C847.778 435.955 849.71 436.159 851.892 436.568C854.097 436.955 856.222 437.761 858.267 438.989C860.335 440.216 862.051 442.068 863.415 444.545C864.778 447.023 865.46 450.341 865.46 454.5V489H857.415V481.909H857.006C856.46 483.045 855.551 484.261 854.278 485.557C853.006 486.852 851.313 487.955 849.199 488.864C847.085 489.773 844.506 490.227 841.46 490.227ZM842.688 483C845.869 483 848.551 482.375 850.733 481.125C852.938 479.875 854.597 478.261 855.71 476.284C856.847 474.307 857.415 472.227 857.415 470.045V462.682C857.074 463.091 856.324 463.466 855.165 463.807C854.028 464.125 852.71 464.409 851.21 464.659C849.733 464.886 848.29 465.091 846.881 465.273C845.494 465.432 844.369 465.568 843.506 465.682C841.415 465.955 839.46 466.398 837.642 467.011C835.847 467.602 834.392 468.5 833.278 469.705C832.188 470.886 831.642 472.5 831.642 474.545C831.642 477.341 832.676 479.455 834.744 480.886C836.835 482.295 839.483 483 842.688 483ZM880.145 489V436.636H887.918V444.818H888.599C889.69 442.023 891.452 439.852 893.884 438.307C896.315 436.739 899.236 435.955 902.645 435.955C906.099 435.955 908.974 436.739 911.27 438.307C913.588 439.852 915.395 442.023 916.69 444.818H917.236C918.577 442.114 920.588 439.966 923.27 438.375C925.952 436.761 929.168 435.955 932.918 435.955C937.599 435.955 941.429 437.42 944.406 440.352C947.384 443.261 948.872 447.795 948.872 453.955V489H940.827V453.955C940.827 450.091 939.77 447.33 937.656 445.67C935.543 444.011 933.054 443.182 930.19 443.182C926.509 443.182 923.656 444.295 921.634 446.523C919.611 448.727 918.599 451.523 918.599 454.909V489H910.418V453.136C910.418 450.159 909.452 447.761 907.52 445.943C905.588 444.102 903.099 443.182 900.054 443.182C897.963 443.182 896.009 443.739 894.19 444.852C892.395 445.966 890.94 447.511 889.827 449.489C888.736 451.443 888.19 453.705 888.19 456.273V489H880.145ZM978.991 490.227C975.673 490.227 972.662 489.602 969.957 488.352C967.253 487.08 965.105 485.25 963.514 482.864C961.923 480.455 961.128 477.545 961.128 474.136C961.128 471.136 961.719 468.705 962.901 466.841C964.082 464.955 965.662 463.477 967.639 462.409C969.616 461.341 971.798 460.545 974.185 460.023C976.594 459.477 979.014 459.045 981.446 458.727C984.628 458.318 987.207 458.011 989.185 457.807C991.185 457.58 992.639 457.205 993.548 456.682C994.48 456.159 994.946 455.25 994.946 453.955V453.682C994.946 450.318 994.026 447.705 992.185 445.841C990.366 443.977 987.605 443.045 983.901 443.045C980.06 443.045 977.048 443.886 974.866 445.568C972.685 447.25 971.151 449.045 970.264 450.955L962.628 448.227C963.991 445.045 965.81 442.568 968.082 440.795C970.378 439 972.878 437.75 975.582 437.045C978.31 436.318 980.991 435.955 983.628 435.955C985.31 435.955 987.241 436.159 989.423 436.568C991.628 436.955 993.753 437.761 995.798 438.989C997.866 440.216 999.582 442.068 1000.95 444.545C1002.31 447.023 1002.99 450.341 1002.99 454.5V489H994.946V481.909H994.537C993.991 483.045 993.082 484.261 991.81 485.557C990.537 486.852 988.844 487.955 986.73 488.864C984.616 489.773 982.037 490.227 978.991 490.227ZM980.219 483C983.401 483 986.082 482.375 988.264 481.125C990.469 479.875 992.128 478.261 993.241 476.284C994.378 474.307 994.946 472.227 994.946 470.045V462.682C994.605 463.091 993.855 463.466 992.696 463.807C991.56 464.125 990.241 464.409 988.741 464.659C987.264 464.886 985.821 465.091 984.412 465.273C983.026 465.432 981.901 465.568 981.037 465.682C978.946 465.955 976.991 466.398 975.173 467.011C973.378 467.602 971.923 468.5 970.81 469.705C969.719 470.886 969.173 472.5 969.173 474.545C969.173 477.341 970.207 479.455 972.276 480.886C974.366 482.295 977.014 483 980.219 483ZM1091.59 419.182H1100.04V465.409C1100.04 470.182 1098.91 474.443 1096.66 478.193C1094.44 481.92 1091.29 484.864 1087.22 487.023C1083.15 489.159 1078.38 490.227 1072.9 490.227C1067.43 490.227 1062.65 489.159 1058.59 487.023C1054.52 484.864 1051.36 481.92 1049.11 478.193C1046.88 474.443 1045.77 470.182 1045.77 465.409V419.182H1054.22V464.727C1054.22 468.136 1054.97 471.17 1056.47 473.83C1057.97 476.466 1060.11 478.545 1062.88 480.068C1065.68 481.568 1069.02 482.318 1072.9 482.318C1076.79 482.318 1080.13 481.568 1082.93 480.068C1085.72 478.545 1087.86 476.466 1089.34 473.83C1090.84 471.17 1091.59 468.136 1091.59 464.727V419.182ZM1125.38 419.182V489H1116.92V419.182H1125.38Z" fill="black"/>
<g clip-path="url(#clip0_27_2)">
<path d="M484.586 313.08C481.946 313.506 478.778 314.887 476.545 316.594C469.782 321.733 464.543 332.642 462.33 346.232C461.497 351.371 460.928 358.502 460.928 363.946C460.928 370.365 461.68 378.572 462.756 384.239C463 385.499 463.122 386.616 463.02 386.698C462.939 386.779 461.944 387.591 460.827 388.485C457.009 391.532 452.643 396.225 449.638 400.511C443.87 408.698 440.134 418.002 438.57 428.077C437.961 432.059 437.799 440.103 438.286 444.085C439.362 453.267 442.124 461.027 446.856 468.137L448.399 470.432L447.952 471.184C444.784 476.506 442.083 484.205 440.824 491.599C439.829 497.45 439.707 499.014 439.707 506.855C439.707 514.757 439.809 516.322 440.743 521.786C441.86 528.327 444.134 535.254 446.673 539.866C447.505 541.369 449.536 544.497 449.78 544.66C449.861 544.7 449.617 545.452 449.231 546.325C446.307 552.724 443.809 561.236 442.774 568.407C442.043 573.323 441.941 574.907 441.941 580.087C441.941 586.689 442.307 589.899 443.688 595.16L443.891 595.932H452.582H461.294L460.725 594.855C457.212 588.355 456.887 576.288 459.913 564.242C461.294 558.676 462.858 554.593 465.782 548.966L467.528 545.553V543.461C467.528 541.511 467.488 541.288 466.858 540.008C466.371 539.033 465.721 538.2 464.563 537.062C462.594 535.153 461.172 533.142 460.035 530.663C455.039 519.815 454.065 503.707 457.578 489.974C459.04 484.245 461.456 479.147 463.995 476.364C465.721 474.454 466.614 472.321 466.614 470.107C466.614 467.812 465.802 465.922 463.974 463.952C458.735 458.345 455.506 451.52 454.349 443.577C452.704 432.262 455.689 419.931 462.472 410.16C469.112 400.572 478.433 394.417 488.851 392.772C491.186 392.385 495.552 392.446 497.989 392.893C500.649 393.361 502.314 393.218 504.02 392.406C506.132 391.411 507.188 390.171 508.427 387.327C509.523 384.788 510.376 383.407 512.671 380.543C515.433 377.109 518.093 374.773 522.357 371.95C527.231 368.76 532.775 366.445 538.299 365.327C540.309 364.921 541.243 364.86 545 364.86C548.757 364.86 549.691 364.921 551.701 365.327C559.804 366.973 567.846 371.158 574.263 377.089C575.643 378.369 578.953 382.472 580.01 384.179C580.416 384.849 581.127 386.271 581.573 387.327C582.812 390.171 583.868 391.411 585.98 392.406C587.625 393.198 589.351 393.361 591.909 392.934C595.951 392.243 599.058 392.304 603.018 393.117C616.501 395.839 628.239 406.951 633.438 421.841C637.966 434.903 636.687 448.574 629.945 459.015C628.807 460.783 627.67 462.205 626.025 463.952C622.472 467.751 622.472 472.464 626.005 476.364C631.813 482.722 635.448 498.364 634.351 512.157C633.62 521.258 631.285 529.404 628.076 534.015C627.508 534.828 626.33 536.209 625.436 537.062C624.279 538.2 623.629 539.033 623.142 540.008C622.512 541.288 622.472 541.511 622.472 543.461V545.553L624.218 548.966C627.143 554.593 628.706 558.676 630.087 564.242C633.072 576.126 632.808 587.949 629.396 594.673C629.112 595.241 628.868 595.77 628.868 595.831C628.868 595.892 632.747 595.932 637.499 595.932H646.109L646.333 595.059C646.455 594.592 646.658 593.88 646.759 593.474C646.983 592.58 647.429 589.94 647.795 587.4C648.14 584.841 648.14 575.415 647.795 572.571C646.495 562.251 644.322 554.065 640.769 546.325C640.383 545.452 640.139 544.7 640.22 544.66C640.322 544.599 640.89 543.786 641.499 542.872C645.926 536.168 648.648 527.738 650.029 516.606C650.394 513.538 650.394 500.355 650.029 497.409C649.054 489.812 647.876 484.652 645.926 479.431C645.114 477.258 642.962 472.667 642.048 471.184L641.601 470.432L643.144 468.137C647.876 461.027 650.638 453.267 651.714 444.085C652.201 440.103 652.039 432.059 651.43 428.077C649.846 417.981 646.13 408.718 640.362 400.511C637.357 396.225 632.991 391.532 629.173 388.485C628.056 387.591 627.061 386.779 626.98 386.698C626.879 386.616 627 385.499 627.244 384.239C629.701 371.421 629.62 355.434 627.041 342.941C624.807 332.053 620.746 323.399 615.506 318.402C611.323 314.42 607.059 312.714 601.941 313.039C590.204 313.73 580.741 327.238 577.004 348.527C576.395 351.961 575.867 355.983 575.867 357.08C575.867 357.506 575.786 357.852 575.684 357.852C575.582 357.852 574.791 357.445 573.938 356.938C564.881 351.574 554.808 348.71 545 348.71C535.192 348.71 525.119 351.574 516.062 356.938C515.209 357.445 514.418 357.852 514.316 357.852C514.214 357.852 514.133 357.506 514.133 357.08C514.133 355.942 513.585 351.798 512.996 348.527C509.605 329.412 501.827 316.756 491.491 313.567C490.069 313.14 486.028 312.856 484.586 313.08ZM488.039 329.615C490.963 331.931 494.212 338.553 496.08 345.968C496.425 347.309 496.791 348.853 496.892 349.421C496.974 349.97 497.197 351.209 497.38 352.164C498.172 356.47 498.537 361.122 498.578 366.79L498.598 372.376L497.197 374.448L495.796 376.54H492.526C488.709 376.54 484.911 377.028 481.276 378.003C479.976 378.328 478.717 378.653 478.474 378.714C478.088 378.796 478.027 378.674 477.804 377.008C476.605 367.968 476.666 357.953 477.987 349.624C479.448 340.341 482.86 331.931 486.19 329.453C486.982 328.864 487.125 328.884 488.039 329.615ZM603.83 329.473C605.84 330.956 608.054 334.897 609.699 339.935C613.009 350.01 613.943 363.844 612.196 377.008C611.973 378.674 611.912 378.796 611.526 378.714C611.283 378.653 610.024 378.328 608.724 378.003C605.089 377.028 601.291 376.54 597.474 376.54H594.204L592.803 374.448L591.402 372.376L591.422 366.79C591.463 358.908 592.194 352.753 593.94 345.907C595.788 338.553 599.058 331.931 601.961 329.615C602.875 328.884 603.018 328.864 603.83 329.473Z" fill="black"/>
<path d="M541.852 431.713C537.445 432.14 536.248 432.302 534.135 432.729C530.703 433.44 526.114 435.025 522.926 436.589C511.838 442.013 504.203 451.052 501.867 461.514C501.4 463.586 501.339 464.277 501.339 467.771C501.339 471.224 501.4 471.976 501.847 473.946C504.954 487.618 517.544 497.714 533.831 499.562C537.364 499.948 552.635 499.948 556.169 499.562C569.247 498.079 580.497 490.99 585.553 481.036C586.893 478.375 587.543 476.648 588.152 473.946C588.599 471.976 588.66 471.224 588.66 467.771C588.66 464.277 588.599 463.586 588.132 461.514C584.741 446.319 569.998 434.354 551.925 432.079C549.569 431.795 543.396 431.551 541.852 431.713ZM549.447 442.764C555.478 443.414 561.55 445.568 566.424 448.818C569.044 450.565 572.739 454.221 574.323 456.619C576.273 459.584 577.39 462.611 577.897 466.288C578.121 467.974 577.999 469.254 577.39 471.976C576.435 476.038 573.47 480.284 569.47 483.25C567.602 484.611 563.723 486.582 561.347 487.354C556.839 488.796 553.894 489.06 543.375 488.979C536.512 488.918 535.293 488.857 533.323 488.491C526.602 487.232 521.281 484.55 517.423 480.467C514.295 477.176 512.874 474.17 512.102 469.315C511.757 467.06 512.407 463.322 513.727 460.173C515.331 456.334 519.474 451.56 523.576 448.818C528.328 445.649 534.582 443.394 540.329 442.785C542.543 442.541 547.233 442.541 549.447 442.764Z" fill="black"/>
<path d="M537.243 457.594C535.7 458.427 534.623 460.539 534.948 462.103C535.314 463.789 536.796 465.496 539.111 466.898C540.35 467.649 540.431 467.751 540.492 468.502C540.533 468.949 540.37 470.229 540.147 471.367C539.903 472.484 539.72 473.662 539.72 473.987C539.741 474.861 540.553 476.283 541.406 476.973C542.157 477.583 542.3 477.603 544.411 477.664C546.341 477.725 546.747 477.684 547.518 477.319C549.509 476.343 550.016 474.556 549.285 471.123C548.676 468.259 548.798 467.812 550.321 466.938C551.925 466.004 553.631 464.358 554.138 463.241C555.113 461.108 554.22 458.691 552.067 457.573C551.539 457.309 550.889 457.188 549.935 457.188C548.453 457.188 547.498 457.533 545.752 458.65L544.757 459.28L544.127 458.894C541.548 457.37 541.081 457.188 539.517 457.208C538.4 457.208 537.791 457.309 537.243 457.594Z" fill="black"/>
<path d="M487.937 434.009C484.343 435.147 481.662 437.787 480.281 441.546C479.611 443.333 479.286 446.157 479.57 447.681C480.241 451.317 483.226 454.628 486.617 455.542C490.882 456.659 494.07 455.928 496.892 453.125C498.537 451.52 499.431 450.118 500.324 447.843C500.974 446.238 501.015 445.954 501.015 443.679L501.035 441.241L500.182 439.494C498.821 436.731 496.364 434.679 493.521 433.928C491.917 433.522 489.338 433.542 487.937 434.009Z" fill="black"/>
<path d="M589.322 445.544C592.715 444.537 595.2 442.858 600.067 442.858C604.934 442.858 608.55 444.537 610.812 445.544" stroke="black" stroke-width="6" stroke-linecap="round"/>
</g>
<defs>
<clipPath id="clip0_27_2">
<rect width="214" height="283" fill="white" transform="translate(438 313)"/>
</clipPath>
</defs>
</svg>
