<svg width="1616" height="909" viewBox="0 0 1616 909" fill="none" xmlns="http://www.w3.org/2000/svg">
<rect width="1616" height="909" fill="#1A1A1A"/>
<path d="M466.333 355H699.667V388.333H466.333V355Z" fill="#00FFC6"/>
<path d="M466.333 438.333H616.333V471.667H466.333V438.333Z" fill="#00FFC6"/>
<path d="M549.667 521.667H699.667V555H549.667V521.667Z" fill="#00FFC6"/>
<path d="M838.9 509.128C831.199 509.128 824.308 507.76 818.228 505.024C812.148 502.288 807.335 498.184 803.788 492.712C800.343 487.139 798.62 480.197 798.62 471.888V468.696H811.236V471.888C811.236 480.704 813.82 487.291 818.988 491.648C824.156 495.904 830.794 498.032 838.9 498.032C847.21 498.032 853.543 496.157 857.9 492.408C862.258 488.659 864.436 483.947 864.436 478.272C864.436 474.32 863.423 471.179 861.396 468.848C859.471 466.517 856.735 464.643 853.188 463.224C849.642 461.704 845.487 460.387 840.724 459.272L832.82 457.296C826.639 455.675 821.167 453.699 816.404 451.368C811.642 449.037 807.892 445.997 805.156 442.248C802.522 438.397 801.204 433.483 801.204 427.504C801.204 421.525 802.674 416.357 805.612 412C808.652 407.643 812.858 404.299 818.228 401.968C823.7 399.637 829.983 398.472 837.076 398.472C844.271 398.472 850.706 399.739 856.38 402.272C862.156 404.704 866.666 408.352 869.908 413.216C873.252 417.979 874.924 424.008 874.924 431.304V437.688H862.308V431.304C862.308 426.136 861.194 421.981 858.964 418.84C856.836 415.699 853.847 413.368 849.996 411.848C846.247 410.328 841.94 409.568 837.076 409.568C830.084 409.568 824.46 411.139 820.204 414.28C815.948 417.32 813.82 421.677 813.82 427.352C813.82 431.101 814.732 434.141 816.556 436.472C818.38 438.803 820.964 440.728 824.308 442.248C827.652 443.667 831.655 444.933 836.316 446.048L844.22 448.024C850.402 449.341 855.924 451.165 860.788 453.496C865.754 455.725 869.706 458.816 872.644 462.768C875.583 466.619 877.052 471.685 877.052 477.968C877.052 484.251 875.482 489.723 872.34 494.384C869.199 499.045 864.74 502.693 858.964 505.328C853.29 507.861 846.602 509.128 838.9 509.128ZM924.519 507C920.263 507 916.97 505.835 914.639 503.504C912.41 501.173 911.295 497.981 911.295 493.928V443.16H888.951V432.672H911.295V406.224H923.303V432.672H947.623V443.16H923.303V492.104C923.303 495.144 924.772 496.664 927.711 496.664H944.279V507H924.519ZM989.428 509.128C984.26 509.128 979.548 508.216 975.292 506.392C971.036 504.568 967.692 501.933 965.26 498.488C962.828 495.043 961.612 490.837 961.612 485.872C961.612 480.805 962.828 476.651 965.26 473.408C967.692 470.064 971.036 467.581 975.292 465.96C979.548 464.237 984.31 463.376 989.58 463.376H1014.66V457.904C1014.66 452.635 1013.09 448.48 1009.95 445.44C1006.91 442.4 1002.35 440.88 996.268 440.88C990.289 440.88 985.628 442.349 982.284 445.288C978.94 448.125 976.66 451.976 975.444 456.84L964.196 453.192C965.412 449.037 967.337 445.288 969.972 441.944C972.606 438.499 976.102 435.763 980.46 433.736C984.918 431.608 990.238 430.544 996.42 430.544C1005.95 430.544 1013.34 433.027 1018.61 437.992C1023.88 442.856 1026.52 449.747 1026.52 458.664V492.256C1026.52 495.296 1027.93 496.816 1030.77 496.816H1037.61V507H1027.12C1023.78 507 1021.09 506.088 1019.07 504.264C1017.04 502.339 1016.03 499.805 1016.03 496.664V495.904H1014.2C1013.09 497.829 1011.57 499.856 1009.64 501.984C1007.82 504.011 1005.29 505.683 1002.04 507C998.801 508.419 994.596 509.128 989.428 509.128ZM990.796 498.792C997.889 498.792 1003.61 496.715 1007.97 492.56C1012.43 488.304 1014.66 482.376 1014.66 474.776V473.104H990.036C985.273 473.104 981.321 474.168 978.18 476.296C975.14 478.323 973.62 481.413 973.62 485.568C973.62 489.723 975.19 492.965 978.332 495.296C981.574 497.627 985.729 498.792 990.796 498.792ZM1054.06 507V400.6H1066.07V463.224H1068.19L1102.24 432.672H1118.96L1077.77 468.848L1120.18 507H1103.61L1068.19 474.624H1066.07V507H1054.06ZM1142.38 509.128C1139.44 509.128 1136.96 508.165 1134.93 506.24C1133.01 504.315 1132.05 501.832 1132.05 498.792C1132.05 495.752 1133.01 493.269 1134.93 491.344C1136.96 489.419 1139.44 488.456 1142.38 488.456C1145.42 488.456 1147.91 489.419 1149.83 491.344C1151.76 493.269 1152.72 495.752 1152.72 498.792C1152.72 501.832 1151.76 504.315 1149.83 506.24C1147.91 508.165 1145.42 509.128 1142.38 509.128Z" fill="white"/>
</svg>
